<svg width="228" height="38" viewBox="0 0 228 38" fill="none" xmlns="http://www.w3.org/2000/svg">
<path d="M6.67359 24.4974V34.58C6.67359 35.4756 6.32691 36.2267 5.69133 36.8912C5.02686 37.5556 4.24683 37.8734 3.38013 37.8734C2.42676 37.8734 1.61784 37.5556 0.98226 36.8912C0.31779 36.2267 0 35.4756 0 34.58V24.4974V15.0792C0 14.1836 0.31779 13.4325 0.98226 12.768C1.61784 12.1036 2.39787 11.7858 3.29346 11.7858C4.24683 11.7858 5.02686 12.1036 5.69133 12.768C6.32691 13.4325 6.67359 14.1836 6.67359 15.0792V24.4974Z" fill="white"/>
<path d="M220.46 7.65369H224.707C225.602 7.65369 226.382 7.3359 227.018 6.67143C227.682 6.03585 228 5.22693 228 4.27356C228 3.37797 227.682 2.59794 227.018 1.96236C226.382 1.29789 225.602 0.980103 224.707 0.980103H220.46H205.177C202.288 0.980103 199.89 1.90458 197.983 3.72465C196.105 5.6025 195.152 8.02926 195.152 11.0338V34.5792C195.152 35.4748 195.47 36.2548 196.134 36.8904C196.77 37.5548 197.579 37.8726 198.532 37.8726C199.399 37.8726 200.179 37.5548 200.843 36.8904C201.479 36.2548 201.826 35.4748 201.826 34.5792V11.0338C201.826 8.7804 202.895 7.65369 205.09 7.65369H220.46Z" fill="white"/>
<path d="M105.68 25.7974V34.58C105.68 35.4756 105.362 36.2267 104.697 36.8912C104.062 37.5556 103.282 37.8734 102.386 37.8734C101.462 37.8734 100.653 37.5556 100.017 36.8912C99.3527 36.2267 99.0349 35.4756 99.0349 34.58V25.7974V15.0792C99.0349 14.1836 99.3527 13.4325 100.017 12.768C100.653 12.1036 101.433 11.7858 102.299 11.7858C103.253 11.7858 104.062 12.1036 104.697 12.768C105.362 13.4325 105.68 14.1836 105.68 15.0792V25.7974Z" fill="white"/>
<path d="M106.575 7.65369H102.299C101.433 7.65369 100.653 7.3359 100.017 6.67143C99.3527 6.03585 99.0349 5.22693 99.0349 4.27356C99.0349 3.37797 99.3527 2.59794 100.017 1.96236C100.653 1.29789 101.433 0.980103 102.299 0.980103H106.575H128.272C131.161 0.980103 133.558 1.90458 135.465 3.72465C137.343 5.6025 138.296 8.02926 138.296 11.0338V34.5792C138.296 35.4748 137.979 36.2259 137.314 36.8904C136.679 37.5259 135.87 37.8726 134.916 37.8726C134.021 37.8726 133.27 37.5259 132.605 36.8904C131.97 36.2259 131.652 35.4748 131.652 34.5792V11.0338C131.652 8.7804 130.554 7.65369 128.358 7.65369H106.575Z" fill="white"/>
<path d="M62.2584 37.8726H59.3983C56.5093 37.8726 54.0536 36.8904 52.0602 34.9258C50.269 33.0769 49.4023 30.7079 49.4023 27.8189V11.0338C49.4023 8.4915 50.1246 6.29586 51.598 4.47579C53.4469 2.1357 55.9893 0.980103 59.3116 0.980103H78.3501H81.8458C84.7348 0.980103 87.1905 1.96236 89.2128 3.92688C90.975 5.74695 91.8706 8.14482 91.8706 11.0338V14.7029V27.8767C91.8706 30.3901 91.1195 32.5569 89.6461 34.3769C87.7394 36.717 85.1393 37.8726 81.8458 37.8726H59.3983H62.2584ZM56.047 24.121V28.0211C56.047 29.3212 56.4804 30.2457 57.376 30.7946C58.0982 31.0546 58.7627 31.199 59.3983 31.199H62.2584H81.9614C83.3192 31.199 84.2726 30.7368 84.8215 29.8412C85.0815 29.1478 85.197 28.4545 85.197 27.8189V14.7029V10.8316C85.197 9.53154 84.7637 8.57817 83.8681 8.05815C83.1748 7.79814 82.4814 7.65369 81.8458 7.65369H78.3501H59.1961C57.896 7.65369 56.9715 8.11593 56.4226 9.01152C56.1626 9.70488 56.047 10.3982 56.047 11.0338V28.0211V24.121Z" fill="white"/>
<path d="M158.375 37.8726H155.544C152.626 37.8726 150.17 36.8904 148.177 34.9258C146.386 33.0769 145.519 30.7079 145.519 27.8189V11.0338C145.519 8.4915 146.241 6.29586 147.715 4.47579C149.564 2.1357 152.135 0.980103 155.428 0.980103H174.467H177.963C180.852 0.980103 183.307 1.96236 185.33 3.92688C187.092 5.74695 187.987 8.14482 187.987 11.0338V14.7029V27.8767C187.987 30.3901 187.236 32.5569 185.763 34.3769C183.856 36.717 181.256 37.8726 177.963 37.8726H155.544H158.375ZM152.164 24.121V28.0211C152.164 29.3212 152.597 30.2457 153.493 30.7946C154.215 31.0546 154.88 31.199 155.544 31.199H158.375H178.078C179.436 31.199 180.389 30.7368 180.938 29.8412C181.198 29.1478 181.314 28.4545 181.314 27.8189V14.7029V10.8316C181.314 9.53154 180.881 8.57817 180.014 8.05815C179.292 7.79814 178.598 7.65369 177.963 7.65369H174.467H155.313C154.013 7.65369 153.088 8.11593 152.539 9.01152C152.279 9.70488 152.164 10.3982 152.164 11.0338V28.0211V24.121Z" fill="white"/>
</svg>
